# xmcd
#
# Track frame offsets: 
#        150
#        25125
#        46977
#        61416
#        78091
#        97574
#        108114
#        131289
#        144933
#        158440
#        170153
#        182692
#        199370
#        219017
#        238963
#        258075
#        272070
#        284633
#        300225
#        315135
#        334901
#
# Disc length: 4622 seconds
#
# Revision: 2
# Processed by: cddbd v1.5.2PL0 Copyright (c) Steve Scherf et al.
# Submitted via: ExactAudioCopy v0.99pb5
#
DISCID=0e120c15
DTITLE=Various Artist - Crate Diggin Fever
DYEAR=2010
DGENRE=Soul
TTITLE0=The Futures - Ain't No Time Fa Nothing
TTITLE1=Jean Carn - Don't Let It Go To Your Head
TTITLE2=Laura Lee - Crumbs Off The Table
TTITLE3=Average White Band - Work To Do
TTITLE4=Al Green - Love Ritual
TTITLE5=African Music Machine - Tropical
TTITLE6=Maryann Farra and Satin Soul - Stoned Out Of My Mind
TTITLE7=Jackie Wilson - Shake A Leg
TTITLE8=Alvin Cash - Ali Shuffle
TTITLE9=Tyrone Davies - Is It Something You Got
TTITLE10=Barbara Acklin - Just Ain't No Love
TTITLE11=Honey Cone - Sittin' On A Time Bomb
TTITLE12=Archie Bell and The Drells - Don't Let Love Get You Down
TTITLE13=Jones Girls - You Can't Have My Love
TTITLE14=MFSB - Picnic In The Park
TTITLE15=Ann Peebles - Beware
TTITLE16=Holland and Dozier - Don't Leave Me (Instrumental)
TTITLE17=Bobby Marchan - Push The Button
TTITLE18=Tommie Young - Thats All A Part Of Loving Him
TTITLE19=Strutt - Front Row Romeo
TTITLE20=Satisfaction Unlimited - Seeing You Through The Eyes Of A Bli
TTITLE20=ndman
EXTD=
EXTT0=
EXTT1=
EXTT2=
EXTT3=
EXTT4=
EXTT5=
EXTT6=
EXTT7=
EXTT8=
EXTT9=
EXTT10=
EXTT11=
EXTT12=
EXTT13=
EXTT14=
EXTT15=
EXTT16=
EXTT17=
EXTT18=
EXTT19=
EXTT20=
PLAYORDER=
